<?xml version="1.0" encoding="utf-8"?>
<!-- Generator: Adobe Illustrator 15.0.2, SVG Export Plug-In . SVG Version: 6.00 Build 0)  -->
<!DOCTYPE svg PUBLIC "-//W3C//DTD SVG 1.1//EN" "http://www.w3.org/Graphics/SVG/1.1/DTD/svg11.dtd">
<svg version="1.1" id="Calque_1" xmlns="http://www.w3.org/2000/svg" xmlns:xlink="http://www.w3.org/1999/xlink" x="0px" y="0px"
	 width="512px" height="512px" viewBox="0 0 512 512" enable-background="new 0 0 512 512" xml:space="preserve">
<g>
	<g>
		<path fill="#DD4B39" d="M256,10.902c-141.384,0-256,97.434-256,217.622c0,69.31,38.12,131.048,97.504,170.901L87.222,501.098
			l79.244-68.643c27.87,8.847,58.034,13.692,89.534,13.692c141.386,0,256.002-97.435,256.002-217.624
			C512.002,108.336,397.386,10.902,256,10.902z M378.46,337.664l-12.794,12.796L256.142,241.214L147.636,350.46l-12.8-12.796
			l108.508-109.248L133.54,118.334l12.794-12.796L256.138,215.62l109.524-108.786l12.798,12.8L268.938,228.42L378.46,337.664z"/>
	</g>
</g>
<polygon fill="#E5E5E5" points="365.662,106.834 378.46,119.635 268.939,228.418 378.46,337.664 365.666,350.46 256.142,241.214 
	147.636,350.46 134.836,337.664 243.344,228.416 133.54,118.334 146.334,105.538 256.138,215.62 "/>
</svg>
